<!-- icon666.com - MILLIONS OF FREE VECTOR ICONS --><svg id="f911717b-7d97-4059-b18f-ecc5a9299809" viewBox="0 0 156 156" xmlns="http://www.w3.org/2000/svg"><g fill="rgb(0,0,0)"><path d="m102.18 60.21c-1 6.63-1.41 13.31-2.15 20-10.43-4.62-20.03-10.95-30.35-15.79-3.49-1.63-8.33 1-7 5.35 4.36 13.57 10.38 26.47 15.67 39.67-15.18-8.19-29.93-16.33-47.72-18.21a2.64 2.64 0 0 0 -2.55 3.33c5.14 12.67 13.23 25.21 25.73 31.59 1.46.74 3.17-1.19 1.82-2.37-8.8-7.66-15.82-16.15-20.7-26.57 18.08 3.78 33.72 17.54 49.7 26 3.37 1.79 8.24-1.21 6.85-5.21-4.65-13.53-10.7-26.51-15.77-39.87 8.81 4.77 17.47 9.8 27 13.26 2.2.81 5.46-.88 5.81-3.3 1.22-8.42 1.59-16.93 2.81-25.35.81-5.97-8.27-8.53-9.15-2.53z" fill="rgb(0,0,0)" style="fill: rgb(255, 255, 255);"></path><path d="m127.82 57.88c-3.42-8.7-8.37-16.85-11.9-25.56a3.76 3.76 0 0 0 -6.16-1.63c-7.58 6-15.37 13.46-19.32 22.44-1.31 3 2.58 5.41 4.42 2.59 4.45-6.83 10.2-11.72 16.31-16.72 3.56 7.44 6.12 15.75 11.84 21.69 1.89 1.96 5.89-.05 4.81-2.81z" fill="rgb(0,0,0)" style="fill: rgb(255, 255, 255);"></path></g></svg>